<svg width="120" height="120" viewBox="0 0 120 120" xmlns="http://www.w3.org/2000/svg" role="img" aria-label="National Sports Analytics emblem">
  <defs>
    <linearGradient id="shield" x1="0" y1="0" x2="0" y2="1">
      <stop offset="0" stop-color="#0B4F8A"/>
      <stop offset="1" stop-color="#083b68"/>
    </linearGradient>
  </defs>
  <!-- Shield -->
  <path d="M60 6 L104 20 V60 C104 88 84 106 60 116 C36 106 16 88 16 60 V20 Z"
        fill="url(#shield)" stroke="#1B8A4C" stroke-width="4"/>
  <!-- Laurel left -->
  <path d="M34 44 C24 54 24 74 34 88" fill="none" stroke="#1B8A4C" stroke-width="3" stroke-linecap="round"/>
  <path d="M31 52 q-8 2 -9 9 q8 0 10 -6 M30 64 q-8 2 -9 9 q8 0 10 -6 M31 76 q-8 2 -9 9 q8 0 10 -6"
        fill="#2ea966"/>
  <!-- Laurel right -->
  <path d="M86 44 C96 54 96 74 86 88" fill="none" stroke="#1B8A4C" stroke-width="3" stroke-linecap="round"/>
  <path d="M89 52 q8 2 9 9 q-8 0 -10 -6 M90 64 q8 2 9 9 q-8 0 -10 -6 M89 76 q8 2 9 9 q-8 0 -10 -6"
        fill="#2ea966"/>
  <!-- Running figure -->
  <g fill="#ffffff">
    <circle cx="58" cy="40" r="6"/>
    <path d="M50 52 q10 -6 18 -2 l-4 10 q6 4 10 12 l-6 4 q-6 -8 -12 -10 l-8 14 -7 -3 8 -16 q-4 -6 -1 -13 z"/>
    <path d="M64 62 l12 -3 2 6 -12 3 z"/>
  </g>
  <!-- Star -->
  <path d="M60 92 l3 7 7 1 -5 5 1 7 -6 -4 -6 4 1 -7 -5 -5 7 -1 z" fill="#F2C14E"/>
</svg>
